<svg xmlns="http://www.w3.org/2000/svg" width="480" height="480" fill="none"><path fill="#D2E3FC" d="M184.754 387.413c47.376 47.415 124.228 47.454 171.652.087 47.425-47.367 47.464-124.203.087-171.618l-60.247-60.295c-47.376-47.415-124.228-47.454-171.652-.087-47.425 47.367-47.464 124.203-.087 171.618l60.247 60.295Z"/><path stroke="#C6FF00" stroke-width="4" d="M240.471 239.293 65.159 413.846V63.975h349.872L240.477 239.287l-.006.006Z"/><rect width="30.125" height="30.125" x="81.303" y="51.139" fill="#4285F4" stroke="#fff" stroke-width="6.125" rx="15.062" transform="rotate(90 81.303 51.139)"/><rect width="30.125" height="30.125" x="81.671" y="398.716" fill="#4285F4" stroke="#fff" stroke-width="6.125" rx="15.062" transform="rotate(90 81.671 398.716)"/><rect width="30.125" height="30.125" x="429.011" y="51.132" fill="#4285F4" stroke="#fff" stroke-width="6.125" rx="15.062" transform="rotate(90 429.011 51.132)"/><path stroke="#1e90ff" stroke-dasharray="16 24" stroke-linecap="round" stroke-width="4" d="M200 146.235c16.328 45.246 67.597 35.378 93.485 11.628C342.367 113.018 394 136.201 394 169.591S387.683 226 342.367 226"/><path fill="#4285F4" d="M111 233.952c0-13.78 11.171-24.952 24.952-24.952h208.482c13.781 0 24.953 11.171 24.953 24.952v109.773c0 13.781-11.172 24.952-24.953 24.952H135.952c-13.781 0-24.952-11.171-24.952-24.952V233.952Z"/><path fill="#E6F4EA" d="M123.234 237.702c0-9.187 7.448-16.635 16.635-16.635h199.956c9.187 0 16.635 7.448 16.635 16.635v103.182c0 9.187-7.448 16.635-16.635 16.635H139.869c-9.187 0-16.635-7.448-16.635-16.635V237.702Z"/><path fill="#4285F4" d="M81 378.839c0-5.612 4.55-10.161 10.161-10.161h297.097c5.612 0 10.161 4.549 10.161 10.161 0 5.612-4.549 10.161-10.161 10.161H91.161C85.55 389 81 384.451 81 378.839Z"/><path stroke="#174EA6" stroke-linecap="round" stroke-linejoin="round" stroke-width="4" d="M125.516 367.709h228.387"/><path fill="#C6FF00" d="M199.065 368.678h81.29a7.742 7.742 0 0 1-7.742 7.742h-65.806a7.742 7.742 0 0 1-7.742-7.742Z"/><path fill="#34A853" fill-rule="evenodd" d="M275.277 268.512a3.554 3.554 0 0 0 0 5.025l15.9 15.91-15.9 15.91a3.554 3.554 0 0 0 0 5.025 3.55 3.55 0 0 0 5.022 0l20.78-20.793a6.37 6.37 0 0 0 .144-.14l-.002-.002.002-.002a4.755 4.755 0 0 0-.144-.14l-20.78-20.793a3.55 3.55 0 0 0-5.022 0ZM206.505 310.382a3.55 3.55 0 0 0 0-5.022l-15.906-15.905a.03.03 0 0 0-.008-.008l.008-.008 15.906-15.905a3.552 3.552 0 0 0-5.023-5.023l-20.928 20.928.008.008-.008.008 20.928 20.927a3.552 3.552 0 0 0 5.023 0Z" clip-rule="evenodd"/><circle cx="222.788" cy="279.391" r="6.034" fill="#202124"/><circle cx="258.989" cy="279.391" r="6.034" fill="#202124"/><path fill="#202124" d="M252.955 293.469a12.066 12.066 0 1 1-24.134 0h24.134Z"/><path fill="#34A853" fill-rule="evenodd" d="M183.2 82c22.533 0 40.8 18.267 40.8 40.8 0 22.534-18.267 40.8-40.8 40.8h-31.483l-15.155 15.727c-2.115 2.195-5.826.698-5.826-2.35V163.6H128.8c-22.533 0-40.8-18.266-40.8-40.8 0-22.533 18.267-40.8 40.8-40.8h54.4Z" clip-rule="evenodd"/><path fill="#C6FF00" d="M171.145 147c3.168 0 5.587-.874 7.258-2.62 1.671-1.712 2.506-4.105 2.506-7.179v-7.337c0-1.432.383-2.445 1.149-3.039.731-.629 1.653-.943 2.767-.943h1.253v-5.764h-1.253c-1.114 0-2.036-.297-2.767-.891-.766-.629-1.149-1.66-1.149-3.092v-7.336c0-3.109-.835-5.52-2.506-7.231-1.671-1.712-4.09-2.568-7.258-2.568h-4.7v5.659h3.969c1.044 0 1.949.385 2.715 1.153.731.734 1.097 1.747 1.097 3.039v7.861c0 1.642.33 2.986.992 4.035.661 1.048 1.723 1.729 3.185 2.043v.419c-1.462.315-2.524.996-3.185 2.044-.662 1.048-.992 2.393-.992 4.035v7.86c0 1.293-.366 2.323-1.097 3.092-.766.734-1.671 1.1-2.715 1.1h-3.969V147h4.7ZM139.933 99c-3.167 0-5.587.873-7.258 2.62-1.671 1.712-2.506 4.105-2.506 7.179v7.336c0 1.433-.383 2.446-1.149 3.04-.731.628-1.653.943-2.767.943H125v5.764h1.253c1.114 0 2.036.297 2.767.891.766.629 1.149 1.659 1.149 3.092v7.336c0 3.109.835 5.519 2.506 7.231 1.671 1.712 4.091 2.568 7.258 2.568h4.7v-5.659h-3.969c-1.044 0-1.949-.385-2.715-1.153-.731-.734-1.096-1.747-1.096-3.04v-7.86c0-1.642-.331-2.987-.993-4.035-.661-1.048-1.723-1.729-3.185-2.043v-.42c1.462-.314 2.524-.995 3.186-2.043.661-1.048.992-2.393.992-4.035v-7.86c0-1.293.365-2.324 1.096-3.092.766-.734 1.671-1.101 2.715-1.101h3.969V99h-4.7Z"/></svg>