<svg xmlns="http://www.w3.org/2000/svg" width="480" height="480" fill="none">
    <ellipse cx="242.414" cy="257.033" fill="#1A73E8" rx="143.161" ry="143.16"/>
    <mask id="a" width="287" height="288" x="99" y="113" maskUnits="userSpaceOnUse" style="mask-type:alpha">
        <rect width="286.322" height="286.321" fill="#4285F4" rx="143.16" transform="matrix(1 0 0 -1 99.254 400.195)"/>
    </mask>
    <g fill="#34A853" mask="url(#a)">
        <circle cx="63.097" cy="63.097" r="63.097" transform="matrix(-.86603 .5 .5 .86602 303.271 66.313)"/>
        <rect width="65.774" height="100.19" rx="32.887" transform="matrix(-.86603 .5 .5 .86602 274.769 185.208)"/>
        <rect width="72.215" height="110.002" rx="36.108" transform="matrix(-.86603 .5 .5 .86602 148.523 272.811)"/>
        <circle cx="53.919" cy="53.919" r="53.919" transform="matrix(-1 0 0 1 385.933 305.195)"/>
        <circle cx="53.919" cy="53.919" r="53.919" transform="matrix(-1 0 0 1 317.102 354.145)"/>
        <circle cx="51.907" cy="51.907" r="51.907" transform="matrix(-1 0 0 1 195.982 213.927)"/>
    </g>
    <path fill="#C6FF00"
          d="M108.131 285.734c1.416-3.879 6.902-3.879 8.318 0l5.54 15.176a29.515 29.515 0 0 0 17.358 17.515l15.027 5.639c3.83 1.436 3.83 6.853 0 8.29l-15.027 5.639a29.515 29.515 0 0 0-17.358 17.515l-5.54 15.176c-1.416 3.879-6.902 3.879-8.318 0l-5.539-15.176a29.518 29.518 0 0 0-17.36-17.515l-15.026-5.639c-3.83-1.437-3.83-6.854 0-8.29l15.027-5.639a29.518 29.518 0 0 0 17.359-17.515l5.539-15.176ZM355.792 98.034c.835-2.817 4.826-2.817 5.66 0l3.512 11.854a5.905 5.905 0 0 0 3.984 3.983l11.853 3.512c2.818.835 2.818 4.826 0 5.661l-11.853 3.511a5.904 5.904 0 0 0-3.984 3.984l-3.512 11.853c-.834 2.818-4.825 2.818-5.66 0l-3.512-11.853a5.905 5.905 0 0 0-3.983-3.984l-11.854-3.511c-2.818-.835-2.818-4.826 0-5.661l11.854-3.512a5.905 5.905 0 0 0 3.983-3.983l3.512-11.854Z"/>
    <path fill="#C6FF00"
          d="M62.33 247.391c.417-1.409 2.412-1.409 2.83 0l1.756 5.927a2.95 2.95 0 0 0 1.991 1.991l5.927 1.756c1.409.418 1.409 2.413 0 2.831l-5.927 1.755a2.953 2.953 0 0 0-1.991 1.992l-1.756 5.927c-.418 1.409-2.413 1.409-2.83 0l-1.756-5.927a2.953 2.953 0 0 0-1.992-1.992l-5.927-1.755c-1.409-.418-1.409-2.413 0-2.831l5.927-1.756a2.95 2.95 0 0 0 1.992-1.991l1.756-5.927ZM95.476 192.457c0-9.81-7.952-17.762-17.762-17.762s-17.762 7.953-17.762 17.762v9.992a7.77 7.77 0 0 0 7.77 7.77h9.992c9.81 0 17.762-7.953 17.762-17.762Z"/>
    <path fill="#fff" stroke="#AECBFA" stroke-width="3.481"
          d="M83.28 109.45a15.698 15.698 0 0 1 12.758-4.51l35.427 3.758c13.128 1.392 18.781 17.379 9.446 26.714l-45.872 45.872a6.982 6.982 0 0 1-9.871 0l-31.925-31.925a6.98 6.98 0 0 1 0-9.871L83.28 109.45Z"/>
    <path fill="#fff" stroke="#AECBFA" stroke-width="3.481"
          d="M160.708 186.874a15.701 15.701 0 0 0 4.511-12.758l-3.758-35.427c-1.393-13.127-17.38-18.78-26.715-9.445l-45.872 45.871a6.98 6.98 0 0 0 0 9.871l31.925 31.925a6.98 6.98 0 0 0 9.872 0l30.037-30.037Z"/>
    <path fill="#34A853"
          d="m122.581 103.33 44.257 44.257-57.186 57.186a8.72 8.72 0 0 1-12.332 0l-31.925-31.925a8.72 8.72 0 0 1 0-12.332l57.186-57.186Z"/>
    <path fill="#E6F4EA" d="m132.907 93.003 44.258 44.258-10.327 10.326-44.257-44.257 10.326-10.327Z"/>
    <path fill="#4285F4"
          d="M132.782 92.879a59.417 59.417 0 0 1 39.517-17.048l6.517-.239c8.833-.324 16.081 6.924 15.756 15.756l-.239 6.517a59.417 59.417 0 0 1-17.047 39.517l-44.504-44.503Z"/>
    <path stroke="#202124" stroke-width="3.481" d="M0-1.74h62.403" transform="rotate(45 -65.58 199.011)"/>
    <path stroke="#202124" stroke-width="3.481" d="M0-1.74h89.594" transform="rotate(-45 290.034 -12.679)"/>
</svg>