<svg xmlns="http://www.w3.org/2000/svg" width="96" height="96" fill="none"><g clip-path="url(#a)"><path fill="#34A853" d="M75.842 75.79a27.578 27.578 0 0 0-2.802-8.552 27.624 27.624 0 0 0-6.481-8.173 27.7 27.7 0 0 0-3.438-2.528l.031-.054 1.666-2.871 1.628-2.805 1.168-2.014a2.528 2.528 0 0 0-4.372-2.535l-1.169 2.014-1.628 2.804c-.554.958-1.11 1.914-1.665 2.872l-.183.315-.251-.1a27.607 27.607 0 0 0-9.848-1.802l-.284.001a27.616 27.616 0 0 0-9.763 1.88l-.17-.293-1.666-2.871a69823.873 69823.873 0 0 1-2.797-4.82 2.525 2.525 0 0 0-3.479-.903 2.517 2.517 0 0 0-1.149 1.522 2.528 2.528 0 0 0 .256 1.917 69823.873 69823.873 0 0 0 2.796 4.819l1.666 2.871.014.025a27.79 27.79 0 0 0-7.959 7.461 27.42 27.42 0 0 0-3.252 6.013 27.446 27.446 0 0 0-1.503 5.475c-.02.111-.036.224-.054.335-.061.4-.114.803-.158 1.21h55a27.624 27.624 0 0 0-.158-1.21l.004-.003Z"/><path fill="#202124" d="M62.802 69.404c1.1-.732 1.26-2.425.358-3.782-.904-1.357-2.528-1.863-3.628-1.131s-1.26 2.425-.357 3.781c.903 1.357 2.527 1.864 3.627 1.132ZM37.865 68.277c.903-1.357.743-3.05-.357-3.782-1.1-.731-2.725-.225-3.628 1.132-.903 1.356-.743 3.05.357 3.781 1.1.732 2.725.226 3.628-1.13Z"/></g><path fill="#0D652D" d="M65.643 37.11c-.013-.462-.017-.721-.017-.721L30 36v20.004C30.02 59.654 39.383 64 48.168 64c.125 0 .25-.003.375-.006 4.65-.067 9.428-1.397 12.812-3.194C64.157 59.31 66 57.5 66 55.821c-.004-3.392-.286-15.61-.357-18.712Z"/><g filter="url(#b)"><path fill="#34A853" d="M51.226 58.765a9 9 0 0 1-6.443 0L9.405 45.202c-1.88-.72-1.87-2.836.014-3.544L43.71 28.767A12.212 12.212 0 0 1 48.002 28c1.486 0 2.953.262 4.292.767L86.58 41.661c1.885.708 1.895 2.824.015 3.544l-35.37 13.56Z"/></g><circle cx="70.5" cy="66.001" r="4" fill="#174EA6"/><path fill="#4285F4" fill-rule="evenodd" d="M46.04 38.969a1.923 1.923 0 0 1 2.57-.89l22.648 11.008a1.923 1.923 0 0 1 1.082 1.73v11.348a1.923 1.923 0 1 1-3.846 0V52.02L46.93 41.54a1.921 1.921 0 0 1-.89-2.57v-.002Z" clip-rule="evenodd"/><defs><clipPath id="a"><path fill="#fff" d="M21 45.001h55v32H21z"/></clipPath><filter id="b" width="80" height="31.361" x="8" y="28" color-interpolation-filters="sRGB" filterUnits="userSpaceOnUse"><feFlood flood-opacity="0" result="BackgroundImageFix"/><feColorMatrix in="SourceAlpha" result="hardAlpha" values="0 0 0 0 0 0 0 0 0 0 0 0 0 0 0 0 0 0 127 0"/><feOffset/><feComposite in2="hardAlpha" operator="out"/><feColorMatrix values="0 0 0 0 0.258824 0 0 0 0 0.521569 0 0 0 0 0.956863 0 0 0 1 0"/><feBlend in2="BackgroundImageFix" result="effect1_dropShadow_152_13005"/><feBlend in="SourceGraphic" in2="effect1_dropShadow_152_13005" result="shape"/></filter></defs></svg>