<svg xmlns="http://www.w3.org/2000/svg" width="96" height="96" fill="none"><rect width="22.418" height="73.978" x="26.564" y="7.741" fill="#174EA6" rx="4" transform="rotate(15 26.564 7.74)"/><path stroke="#4285F4" stroke-linecap="square" stroke-width="2" d="m10.966 70.285 19.488 5.222M12.852 63.248 32.34 68.47M23.005 25.354l19.489 5.222"/><path fill="#E8F0FE" d="M37 66h40v15H37z"/><mask id="a" fill="#fff"><path d="M38.319 84.48a4 4 0 0 1-4-4V66.623a4 4 0 0 1 4-4h39.077a4 4 0 0 1 4 4V80.48a4 4 0 0 1-4 4H38.319Z"/></mask><path fill="#4285F4" d="M38.319 88.48a8 8 0 0 1-8-8V66.623a8 8 0 0 1 8-8V88.48Zm43.077-25.857V84.48 62.623Zm0 17.857a8 8 0 0 1-8 8H38.319a8 8 0 0 1-8-8h51.077ZM30.319 66.623a8 8 0 0 1 8-8h35.077a8 8 0 0 1 8 8H30.319Z" mask="url(#a)"/><path fill="#174EA6" d="M43.286 70.03a1 1 0 0 0 0 2v-2Zm32.8 2h1v-2h-1v2Zm-32.8 0h32.8v-2h-32.8v2ZM43.286 75.073a1 1 0 1 0 0 2v-2Zm32.8 2h1v-2h-1v2Zm-32.8 0h32.8v-2h-32.8v2Z"/><path fill="#0D652D" d="M69.35 47.789c-.009-.323-.012-.505-.012-.505L44.4 47.013v14.002c.015 2.555 6.568 5.598 12.718 5.598.087 0 .175-.002.262-.005 3.255-.046 6.6-.977 8.968-2.235 1.962-1.045 3.252-2.311 3.252-3.487-.003-2.373-.2-10.926-.25-13.097Z"/><g filter="url(#b)"><path fill="#34A853" d="M62.265 55.262a14.7 14.7 0 0 1-10.524 0l-21.758-8.341c-1.316-.504-1.309-1.985.01-2.48l24.004-9.025a8.548 8.548 0 0 1 3.004-.537c1.04 0 2.068.184 3.005.537l24 9.026c1.32.496 1.327 1.977.01 2.481l-21.75 8.339Z"/></g><circle cx="74.75" cy="62.478" r="2.8" fill="#174EA6"/><path fill="#AECBFA" fill-rule="evenodd" d="M57.628 43.557a1.346 1.346 0 0 1 1.8-.622L75.28 50.64a1.346 1.346 0 0 1 .757 1.21v7.944a1.346 1.346 0 0 1-2.692 0v-7.1l-15.095-7.337a1.344 1.344 0 0 1-.623-1.799v-.001Z" clip-rule="evenodd"/><defs><filter id="b" width="56" height="21.357" x="29" y="34.879" color-interpolation-filters="sRGB" filterUnits="userSpaceOnUse"><feFlood flood-opacity="0" result="BackgroundImageFix"/><feColorMatrix in="SourceAlpha" result="hardAlpha" values="0 0 0 0 0 0 0 0 0 0 0 0 0 0 0 0 0 0 127 0"/><feOffset/><feComposite in2="hardAlpha" operator="out"/><feColorMatrix values="0 0 0 0 0.258824 0 0 0 0 0.521569 0 0 0 0 0.956863 0 0 0 1 0"/><feBlend in2="BackgroundImageFix" result="effect1_dropShadow_179_8295"/><feBlend in="SourceGraphic" in2="effect1_dropShadow_179_8295" result="shape"/></filter></defs></svg>