<svg xmlns="http://www.w3.org/2000/svg" width="97" height="96" fill="none">
    <rect width="22.418" height="73.978" x="27.064" y="7.74" fill="#AECBFA" rx="4" transform="rotate(15 27.064 7.74)"/>
    <path stroke="#356AC3" stroke-linecap="square" stroke-width="2"
          d="m11.466 70.285 19.488 5.222M13.352 63.248 32.84 68.47M23.505 25.354l19.489 5.221"/>
    <path fill="#132137" d="M37.5 66h40v15h-40z"/>
    <mask id="a" fill="#fff">
        <path d="M38.819 84.48a4 4 0 0 1-4-4V66.624a4 4 0 0 1 4-4h39.077a4 4 0 0 1 4 4v13.858a4 4 0 0 1-4 4H38.819Z"/>
    </mask>
    <path fill="#356AC3"
          d="M38.819 88.48a8 8 0 0 1-8-8V66.624a8 8 0 0 1 8-8v29.858Zm43.077-25.857v21.858-21.858Zm0 17.858a8 8 0 0 1-8 8H38.819a8 8 0 0 1-8-8h51.077ZM30.819 66.623a8 8 0 0 1 8-8h35.077a8 8 0 0 1 8 8H30.819Z"
          mask="url(#a)"/>
    <path fill="#AECBFA"
          d="M43.786 70.03a1 1 0 1 0 0 2v-2Zm32.8 2h1v-2h-1v2Zm-32.8 0h32.8v-2h-32.8v2ZM43.786 75.074a1 1 0 1 0 0 2v-2Zm32.8 2h1v-2h-1v2Zm-32.8 0h32.8v-2h-32.8v2Z"/>
    <path fill="#A8DAB5"
          d="M69.85 47.787c-.009-.322-.012-.504-.012-.504L44.9 47.012v14.002c.015 2.555 6.568 5.598 12.718 5.598.087 0 .175-.003.262-.005 3.255-.047 6.6-.977 8.968-2.235 1.962-1.045 3.252-2.311 3.252-3.487-.003-2.373-.2-10.926-.25-13.098Z"/>
    <g filter="url(#b)">
        <path fill="#2A8642"
              d="M62.765 55.262a14.7 14.7 0 0 1-10.524 0L30.483 46.92c-1.316-.503-1.309-1.985.01-2.48l24.004-9.024a8.548 8.548 0 0 1 3.004-.537c1.04 0 2.068.183 3.005.537l24 9.026c1.32.495 1.327 1.977.01 2.48l-21.75 8.34Z"/>
    </g>
    <circle cx="75.25" cy="62.478" r="2.8" fill="#AECBFA"/>
    <path fill="#164590" fill-rule="evenodd"
          d="M58.128 43.557a1.346 1.346 0 0 1 1.8-.623L75.78 50.64a1.346 1.346 0 0 1 .757 1.211v7.944a1.347 1.347 0 0 1-2.692 0v-7.101l-15.095-7.336a1.344 1.344 0 0 1-.623-1.8Z"
          clip-rule="evenodd"/>
    <defs>
        <filter id="b" width="56" height="21.357" x="29.5" y="34.879" color-interpolation-filters="sRGB"
                filterUnits="userSpaceOnUse">
            <feFlood flood-opacity="0" result="BackgroundImageFix"/>
            <feColorMatrix in="SourceAlpha" result="hardAlpha" values="0 0 0 0 0 0 0 0 0 0 0 0 0 0 0 0 0 0 127 0"/>
            <feOffset/>
            <feComposite in2="hardAlpha" operator="out"/>
            <feColorMatrix values="0 0 0 0 0.258824 0 0 0 0 0.521569 0 0 0 0 0.956863 0 0 0 1 0"/>
            <feBlend in2="BackgroundImageFix" result="effect1_dropShadow_18024_150156"/>
            <feBlend in="SourceGraphic" in2="effect1_dropShadow_18024_150156" result="shape"/>
        </filter>
    </defs>
</svg>