<svg xmlns="http://www.w3.org/2000/svg" width="480" height="480" fill="none"><rect width="248" height="336" x="120" y="96" fill="#CEEAD6" rx="32"/><rect width="98" height="28" x="195.225" y="80" fill="#0D652D" rx="7"/><path fill="#0D652D" d="M272.225 80a28 28 0 1 0-56 0h56Z"/><rect width="159.086" height="85.943" x="53.139" y="288.585" fill="#fff" rx="42.971"/><circle cx="132.682" cy="331.557" r="37.486" fill="#34A853"/><ellipse cx="132.682" cy="332.471" fill="#0D652D" rx="22.857" ry="23.771"/><circle cx="145.482" cy="315.1" r="10.057" fill="#fff"/><path stroke="#AECBFA" stroke-linecap="round" stroke-width="2.743" d="M79.653 370.87c-9.439-3.243-27.428-14.629-27.428-39.831 0-29.188 23.314-41.998 37.307-43.369 8.588-.842 15.313 0 26.101 0"/><path fill="#AECBFA" d="M115.5 374.87a1.37 1.37 0 1 0 0-2.74v2.74Zm-20.977 0H115.5v-2.74H94.523v2.74Zm-16.01-2.939a45.077 45.077 0 0 0 16.01 2.939v-2.74a42.334 42.334 0 0 1-15.036-2.76l-.974 2.561Z"/><path fill="#4285F4" d="M368.003 147.968c-20.546 0-37.203 16.656-37.203 37.203v147.343h74.406V185.171c0-20.547-16.656-37.203-37.203-37.203Z"/><path fill="#E8F0FE" fill-rule="evenodd" d="M380.359 332.509c.001-6.729 5.563-12.184 12.423-12.184 6.862 0 12.424 5.457 12.424 12.187 0 2.724-.911 5.239-2.45 7.268l-22.004 35.591c-5.857 9.473-19.636 9.473-25.493 0l-21.956-35.513a11.985 11.985 0 0 1-2.506-7.341c0-6.731 5.562-12.187 12.424-12.187 6.792 0 12.311 5.347 12.422 11.983.111-6.636 5.599-11.981 12.353-11.981 6.821 0 12.351 5.451 12.356 12.177h.007Z" clip-rule="evenodd"/><path fill="#202124" d="M363.243 388.315c2.181 3.526 7.311 3.521 9.485-.009l11.511-18.693s-4.505-6.696-16.28-6.696c-11.775 0-16.281 6.696-16.281 6.696l11.565 18.702Z"/><path stroke="#202124" stroke-linecap="round" stroke-width="4" d="M355.499 330.913V206.766M380.487 330.912V206.765"/><path fill="#E8F0FE" d="M405.2 191.761h-74.406v14.999H405.2z"/><path fill="#C6FF00" d="M74.97 201.633c.842-2.841 4.867-2.841 5.709 0l3.541 11.954a5.952 5.952 0 0 0 4.017 4.017l11.954 3.542c2.842.842 2.842 4.866 0 5.708l-11.954 3.542a5.952 5.952 0 0 0-4.017 4.017l-3.541 11.954c-.842 2.841-4.867 2.841-5.709 0l-3.541-11.954a5.952 5.952 0 0 0-4.017-4.017l-11.954-3.542c-2.842-.842-2.842-4.866 0-5.708l11.954-3.542a5.952 5.952 0 0 0 4.017-4.017l3.541-11.954ZM400.272 79.225c.631-2.131 3.649-2.131 4.281 0l2.656 8.965a4.464 4.464 0 0 0 3.013 3.013l8.965 2.656c2.131.632 2.131 3.65 0 4.282l-8.965 2.656a4.462 4.462 0 0 0-3.013 3.013l-2.656 8.965c-.632 2.131-3.65 2.131-4.281 0l-2.657-8.965a4.463 4.463 0 0 0-3.012-3.013l-8.966-2.656c-2.131-.632-2.131-3.65 0-4.282l8.966-2.656a4.464 4.464 0 0 0 3.012-3.013l2.657-8.965Z"/><path stroke="#000" stroke-linecap="round" stroke-width="4" d="M212.225 175.744h64M212.225 207.744h96M212.225 241.59h80"/><circle cx="187.775" cy="176" r="8" fill="#34A853"/><circle cx="187.775" cy="208" r="8" fill="#34A853"/><circle cx="187.775" cy="240" r="8" fill="#34A853"/></svg>